<svg width="856" height="297" viewBox="0 0 856 297" fill="none" xmlns="http://www.w3.org/2000/svg">
<rect x="163" y="173" width="529" height="124" rx="11" fill="black"/>
<path d="M283.6 225.512C281.168 225.512 279.269 224.765 277.904 223.272C276.539 221.779 275.856 219.72 275.856 217.096V202.28H279.216V217.224C279.216 218.888 279.589 220.168 280.336 221.064C281.083 221.939 282.171 222.376 283.6 222.376C285.029 222.376 286.117 221.939 286.864 221.064C287.611 220.168 287.984 218.888 287.984 217.224V202.28H291.344V217.096C291.344 219.72 290.661 221.779 289.296 223.272C287.931 224.765 286.032 225.512 283.6 225.512ZM295.748 225V207.976H298.724L298.82 212.424L298.468 212.168C298.681 211.123 299.054 210.269 299.588 209.608C300.142 208.925 300.814 208.424 301.604 208.104C302.393 207.763 303.236 207.592 304.132 207.592C305.412 207.592 306.468 207.88 307.3 208.456C308.132 209.011 308.761 209.779 309.188 210.76C309.614 211.72 309.828 212.808 309.828 214.024V225H306.596V214.856C306.596 213.384 306.308 212.275 305.732 211.528C305.177 210.781 304.334 210.408 303.204 210.408C302.414 210.408 301.7 210.579 301.06 210.92C300.441 211.261 299.94 211.773 299.556 212.456C299.172 213.117 298.98 213.939 298.98 214.92V225H295.748ZM321.463 225V207.976H324.727V225H321.463ZM314.807 225V222.28H330.423V225H314.807ZM315.127 210.696V207.976H324.439V210.696H315.127ZM321.271 205.512V202.152H324.599V205.512H321.271ZM338.219 225V207.08C338.219 205.501 338.613 204.307 339.403 203.496C340.192 202.685 341.419 202.28 343.083 202.28H348.587V205H343.403C342.763 205 342.272 205.192 341.931 205.576C341.611 205.939 341.451 206.451 341.451 207.112V225H338.219ZM333.739 210.696V207.976H348.331V210.696H333.739ZM359.838 225V207.976H363.102V225H359.838ZM353.182 225V222.28H368.798V225H353.182ZM353.502 210.696V207.976H362.814V210.696H353.502ZM359.646 205.512V202.152H362.974V205.512H359.646ZM379.762 225.384C378.162 225.384 376.764 225.021 375.57 224.296C374.396 223.571 373.479 222.536 372.818 221.192C372.178 219.848 371.858 218.28 371.858 216.488C371.858 214.696 372.178 213.139 372.818 211.816C373.479 210.493 374.386 209.459 375.538 208.712C376.711 207.965 378.087 207.592 379.666 207.592C381.18 207.592 382.514 207.955 383.666 208.68C384.818 209.384 385.714 210.408 386.354 211.752C387.015 213.075 387.346 214.675 387.346 216.552V217.448H375.25C375.356 219.069 375.804 220.307 376.594 221.16C377.404 221.992 378.471 222.408 379.794 222.408C380.796 222.408 381.628 222.173 382.29 221.704C382.951 221.213 383.41 220.584 383.666 219.816L387.058 220.04C386.567 221.661 385.682 222.963 384.402 223.944C383.143 224.904 381.596 225.384 379.762 225.384ZM375.25 214.856H383.858C383.73 213.405 383.282 212.328 382.514 211.624C381.767 210.92 380.818 210.568 379.666 210.568C378.471 210.568 377.49 210.931 376.722 211.656C375.954 212.381 375.463 213.448 375.25 214.856ZM397.381 225.384C395.93 225.384 394.672 225.032 393.605 224.328C392.538 223.603 391.717 222.579 391.141 221.256C390.565 219.912 390.277 218.323 390.277 216.488C390.277 214.653 390.565 213.075 391.141 211.752C391.717 210.408 392.538 209.384 393.605 208.68C394.672 207.955 395.93 207.592 397.381 207.592C398.576 207.592 399.621 207.869 400.517 208.424C401.413 208.979 402.064 209.629 402.469 210.376V202.28H405.701V225H402.693L402.597 222.376C402.128 223.293 401.445 224.029 400.549 224.584C399.653 225.117 398.597 225.384 397.381 225.384ZM397.925 222.408C398.864 222.408 399.664 222.173 400.325 221.704C401.008 221.213 401.53 220.531 401.893 219.656C402.277 218.76 402.469 217.704 402.469 216.488C402.469 215.229 402.277 214.163 401.893 213.288C401.53 212.413 401.008 211.741 400.325 211.272C399.642 210.803 398.821 210.568 397.861 210.568C396.56 210.568 395.536 211.091 394.789 212.136C394.042 213.181 393.669 214.632 393.669 216.488C393.669 218.323 394.042 219.773 394.789 220.84C395.536 221.885 396.581 222.408 397.925 222.408ZM430.252 225V202.28H437.292C438.871 202.28 440.247 202.568 441.42 203.144C442.615 203.72 443.532 204.541 444.172 205.608C444.833 206.653 445.164 207.901 445.164 209.352C445.164 210.803 444.833 212.061 444.172 213.128C443.532 214.173 442.615 214.984 441.42 215.56C440.247 216.115 438.871 216.392 437.292 216.392H433.612V225H430.252ZM433.612 213.224H436.94C438.561 213.224 439.756 212.893 440.524 212.232C441.292 211.571 441.676 210.611 441.676 209.352C441.676 208.072 441.292 207.101 440.524 206.44C439.756 205.779 438.561 205.448 436.94 205.448H433.612V213.224ZM453.696 225V207.976H456.256L456.544 212.328L456.256 212.296C456.469 210.824 456.928 209.736 457.632 209.032C458.336 208.328 459.306 207.976 460.544 207.976H464.16V210.792H460.672C459.861 210.792 459.178 210.952 458.624 211.272C458.069 211.571 457.642 212.029 457.344 212.648C457.066 213.245 456.928 213.992 456.928 214.888V225H453.696ZM449.376 225V222.28H462.24V225H449.376ZM449.376 210.696V207.976H455.52V210.696H449.376ZM475.475 225.384C473.896 225.384 472.51 225.021 471.315 224.296C470.142 223.571 469.224 222.536 468.563 221.192C467.923 219.848 467.603 218.28 467.603 216.488C467.603 214.675 467.923 213.107 468.563 211.784C469.224 210.44 470.142 209.405 471.315 208.68C472.51 207.955 473.896 207.592 475.475 207.592C477.054 207.592 478.43 207.955 479.603 208.68C480.798 209.405 481.715 210.44 482.355 211.784C483.016 213.107 483.347 214.675 483.347 216.488C483.347 218.28 483.016 219.848 482.355 221.192C481.715 222.536 480.798 223.571 479.603 224.296C478.43 225.021 477.054 225.384 475.475 225.384ZM475.475 222.408C476.904 222.408 478.003 221.885 478.771 220.84C479.56 219.795 479.955 218.344 479.955 216.488C479.955 214.632 479.56 213.181 478.771 212.136C478.003 211.091 476.904 210.568 475.475 210.568C474.046 210.568 472.936 211.091 472.147 212.136C471.379 213.181 470.995 214.632 470.995 216.488C470.995 218.344 471.379 219.795 472.147 220.84C472.936 221.885 474.046 222.408 475.475 222.408ZM494.919 225.384C493.404 225.384 492.103 225.128 491.015 224.616C489.927 224.104 489.084 223.421 488.487 222.568C487.889 221.693 487.548 220.723 487.463 219.656L490.759 219.464C490.929 220.381 491.356 221.117 492.039 221.672C492.721 222.205 493.692 222.472 494.951 222.472C496.124 222.472 497.02 222.312 497.639 221.992C498.257 221.672 498.567 221.171 498.567 220.488C498.567 220.061 498.46 219.709 498.247 219.432C498.033 219.133 497.628 218.888 497.031 218.696C496.455 218.483 495.601 218.269 494.47 218.056C492.785 217.736 491.463 217.363 490.503 216.936C489.564 216.488 488.892 215.933 488.487 215.272C488.081 214.589 487.879 213.768 487.879 212.808C487.879 211.827 488.124 210.941 488.615 210.152C489.127 209.363 489.873 208.744 490.855 208.296C491.836 207.827 493.052 207.592 494.503 207.592C496.017 207.592 497.265 207.859 498.247 208.392C499.228 208.904 499.996 209.576 500.551 210.408C501.105 211.24 501.457 212.147 501.607 213.128L498.311 213.32C498.183 212.765 497.959 212.285 497.639 211.88C497.319 211.453 496.892 211.123 496.359 210.888C495.825 210.632 495.207 210.504 494.503 210.504C493.372 210.504 492.54 210.728 492.007 211.176C491.473 211.624 491.207 212.168 491.207 212.808C491.207 213.32 491.335 213.736 491.591 214.056C491.847 214.355 492.273 214.611 492.871 214.824C493.468 215.016 494.279 215.208 495.303 215.4C497.031 215.677 498.364 216.04 499.303 216.488C500.241 216.915 500.903 217.448 501.287 218.088C501.671 218.728 501.863 219.517 501.863 220.456C501.863 221.48 501.564 222.365 500.967 223.112C500.391 223.837 499.58 224.403 498.535 224.808C497.511 225.192 496.305 225.384 494.919 225.384ZM506.554 229.8V207.976H509.626L509.69 211.848L509.306 211.656C509.733 210.333 510.426 209.331 511.386 208.648C512.367 207.944 513.519 207.592 514.842 207.592C516.485 207.592 517.829 208.008 518.874 208.84C519.919 209.651 520.698 210.728 521.21 212.072C521.722 213.416 521.978 214.888 521.978 216.488C521.978 218.088 521.722 219.56 521.21 220.904C520.698 222.248 519.919 223.336 518.874 224.168C517.829 224.979 516.485 225.384 514.842 225.384C513.967 225.384 513.157 225.245 512.41 224.968C511.663 224.669 511.023 224.253 510.49 223.72C509.978 223.165 509.605 222.504 509.37 221.736L509.786 221.288V229.8H506.554ZM514.234 222.408C515.599 222.408 516.666 221.896 517.434 220.872C518.202 219.848 518.586 218.387 518.586 216.488C518.586 214.589 518.202 213.128 517.434 212.104C516.666 211.08 515.599 210.568 514.234 210.568C513.338 210.568 512.559 210.792 511.898 211.24C511.237 211.667 510.714 212.317 510.33 213.192C509.967 214.067 509.786 215.165 509.786 216.488C509.786 217.811 509.967 218.909 510.33 219.784C510.693 220.659 511.205 221.32 511.866 221.768C512.549 222.195 513.338 222.408 514.234 222.408ZM533.262 225.384C531.662 225.384 530.264 225.021 529.07 224.296C527.896 223.571 526.979 222.536 526.318 221.192C525.678 219.848 525.358 218.28 525.358 216.488C525.358 214.696 525.678 213.139 526.318 211.816C526.979 210.493 527.886 209.459 529.038 208.712C530.211 207.965 531.587 207.592 533.166 207.592C534.68 207.592 536.014 207.955 537.166 208.68C538.318 209.384 539.214 210.408 539.854 211.752C540.515 213.075 540.846 214.675 540.846 216.552V217.448H528.75C528.856 219.069 529.304 220.307 530.094 221.16C530.904 221.992 531.971 222.408 533.294 222.408C534.296 222.408 535.128 222.173 535.79 221.704C536.451 221.213 536.91 220.584 537.166 219.816L540.558 220.04C540.067 221.661 539.182 222.963 537.902 223.944C536.643 224.904 535.096 225.384 533.262 225.384ZM528.75 214.856H537.358C537.23 213.405 536.782 212.328 536.014 211.624C535.267 210.92 534.318 210.568 533.166 210.568C531.971 210.568 530.99 210.931 530.222 211.656C529.454 212.381 528.963 213.448 528.75 214.856ZM552.609 225.384C551.03 225.384 549.633 225.021 548.417 224.296C547.222 223.549 546.294 222.515 545.633 221.192C544.993 219.848 544.673 218.28 544.673 216.488C544.673 214.696 544.993 213.139 545.633 211.816C546.294 210.493 547.222 209.459 548.417 208.712C549.633 207.965 551.03 207.592 552.609 207.592C553.91 207.592 555.073 207.837 556.097 208.328C557.121 208.797 557.964 209.491 558.625 210.408C559.286 211.325 559.724 212.424 559.937 213.704L556.641 213.928C556.385 212.84 555.905 212.008 555.201 211.432C554.497 210.856 553.644 210.568 552.641 210.568C551.212 210.568 550.081 211.101 549.249 212.168C548.438 213.213 548.033 214.653 548.033 216.488C548.033 218.323 548.438 219.773 549.249 220.84C550.081 221.885 551.212 222.408 552.641 222.408C553.665 222.408 554.54 222.109 555.265 221.512C556.012 220.893 556.502 219.987 556.737 218.792L560.033 218.984C559.82 220.285 559.372 221.416 558.689 222.376C558.006 223.315 557.142 224.051 556.097 224.584C555.073 225.117 553.91 225.384 552.609 225.384ZM573.845 225C572.117 225 570.826 224.605 569.973 223.816C569.141 223.005 568.725 221.768 568.725 220.104V203.976H571.957V219.944C571.957 220.733 572.138 221.32 572.501 221.704C572.885 222.088 573.45 222.28 574.197 222.28H578.581V225H573.845ZM563.349 210.696V207.976H578.581V210.696H563.349ZM363.096 267V244.28H370.136C371.714 244.28 373.09 244.568 374.264 245.144C375.458 245.72 376.376 246.541 377.016 247.608C377.677 248.653 378.008 249.901 378.008 251.352C378.008 252.803 377.677 254.061 377.016 255.128C376.376 256.173 375.458 256.984 374.264 257.56C373.09 258.115 371.714 258.392 370.136 258.392H366.456V267H363.096ZM366.456 255.224H369.784C371.405 255.224 372.6 254.893 373.368 254.232C374.136 253.571 374.52 252.611 374.52 251.352C374.52 250.072 374.136 249.101 373.368 248.44C372.6 247.779 371.405 247.448 369.784 247.448H366.456V255.224ZM386.539 267V249.976H389.099L389.387 254.328L389.099 254.296C389.313 252.824 389.771 251.736 390.475 251.032C391.179 250.328 392.15 249.976 393.387 249.976H397.003V252.792H393.515C392.705 252.792 392.022 252.952 391.467 253.272C390.913 253.571 390.486 254.029 390.187 254.648C389.91 255.245 389.771 255.992 389.771 256.888V267H386.539ZM382.219 267V264.28H395.083V267H382.219ZM382.219 252.696V249.976H388.363V252.696H382.219ZM408.319 267.384C406.74 267.384 405.353 267.021 404.159 266.296C402.985 265.571 402.068 264.536 401.407 263.192C400.767 261.848 400.447 260.28 400.447 258.488C400.447 256.675 400.767 255.107 401.407 253.784C402.068 252.44 402.985 251.405 404.159 250.68C405.353 249.955 406.74 249.592 408.319 249.592C409.897 249.592 411.273 249.955 412.447 250.68C413.641 251.405 414.559 252.44 415.199 253.784C415.86 255.107 416.191 256.675 416.191 258.488C416.191 260.28 415.86 261.848 415.199 263.192C414.559 264.536 413.641 265.571 412.447 266.296C411.273 267.021 409.897 267.384 408.319 267.384ZM408.319 264.408C409.748 264.408 410.847 263.885 411.615 262.84C412.404 261.795 412.799 260.344 412.799 258.488C412.799 256.632 412.404 255.181 411.615 254.136C410.847 253.091 409.748 252.568 408.319 252.568C406.889 252.568 405.78 253.091 404.991 254.136C404.223 255.181 403.839 256.632 403.839 258.488C403.839 260.344 404.223 261.795 404.991 262.84C405.78 263.885 406.889 264.408 408.319 264.408ZM424.562 267V249.08C424.562 247.501 424.957 246.307 425.746 245.496C426.536 244.685 427.762 244.28 429.426 244.28H434.93V247H429.746C429.106 247 428.616 247.192 428.274 247.576C427.954 247.939 427.794 248.451 427.794 249.112V267H424.562ZM420.082 252.696V249.976H434.674V252.696H420.082ZM446.182 267V249.976H449.446V267H446.182ZM439.526 267V264.28H455.142V267H439.526ZM439.846 252.696V249.976H449.158V252.696H439.846ZM445.99 247.512V244.152H449.318V247.512H445.99ZM464.729 267V249.112C464.729 248.451 464.537 247.939 464.153 247.576C463.791 247.192 463.279 247 462.617 247H458.713V244.28H462.969C464.612 244.28 465.849 244.707 466.681 245.56C467.535 246.392 467.961 247.629 467.961 249.272V267H464.729ZM458.073 267V264.28H473.689V267H458.073ZM485.293 267.384C483.693 267.384 482.295 267.021 481.101 266.296C479.927 265.571 479.01 264.536 478.349 263.192C477.709 261.848 477.389 260.28 477.389 258.488C477.389 256.696 477.709 255.139 478.349 253.816C479.01 252.493 479.917 251.459 481.069 250.712C482.242 249.965 483.618 249.592 485.197 249.592C486.711 249.592 488.045 249.955 489.197 250.68C490.349 251.384 491.245 252.408 491.885 253.752C492.546 255.075 492.877 256.675 492.877 258.552V259.448H480.781C480.887 261.069 481.335 262.307 482.125 263.16C482.935 263.992 484.002 264.408 485.325 264.408C486.327 264.408 487.159 264.173 487.821 263.704C488.482 263.213 488.941 262.584 489.197 261.816L492.589 262.04C492.098 263.661 491.213 264.963 489.933 265.944C488.674 266.904 487.127 267.384 485.293 267.384ZM480.781 256.856H489.389C489.261 255.405 488.813 254.328 488.045 253.624C487.298 252.92 486.349 252.568 485.197 252.568C484.002 252.568 483.021 252.931 482.253 253.656C481.485 254.381 480.994 255.448 480.781 256.856Z" fill="white"/>
<rect width="160" height="52" rx="11" fill="#E4FE55"/>
<path d="M41.888 37.512C40.2453 37.512 38.8053 37.1813 37.568 36.52C36.352 35.8587 35.3813 34.9413 34.656 33.768C33.9307 32.5733 33.504 31.1867 33.376 29.608L36.832 29.384C36.9813 30.472 37.28 31.3893 37.728 32.136C38.176 32.8827 38.7627 33.448 39.488 33.832C40.2133 34.1947 41.056 34.376 42.016 34.376C42.9547 34.376 43.744 34.2587 44.384 34.024C45.024 33.768 45.5147 33.4053 45.856 32.936C46.1973 32.4667 46.368 31.9013 46.368 31.24C46.368 30.5573 46.208 29.96 45.888 29.448C45.568 28.936 44.992 28.4667 44.16 28.04C43.328 27.6133 42.112 27.176 40.512 26.728C38.9547 26.3013 37.6853 25.8213 36.704 25.288C35.7227 24.7547 35.008 24.0933 34.56 23.304C34.112 22.5147 33.888 21.5333 33.888 20.36C33.888 19.0587 34.1867 17.9173 34.784 16.936C35.4027 15.9333 36.2773 15.1547 37.408 14.6C38.56 14.0453 39.936 13.768 41.536 13.768C43.1147 13.768 44.4587 14.0773 45.568 14.696C46.6987 15.3147 47.584 16.1787 48.224 17.288C48.8853 18.376 49.2907 19.656 49.44 21.128L45.984 21.32C45.8773 20.4453 45.632 19.6773 45.248 19.016C44.8853 18.3547 44.384 17.8427 43.744 17.48C43.104 17.096 42.336 16.904 41.44 16.904C40.1813 16.904 39.1787 17.2133 38.432 17.832C37.7067 18.4293 37.344 19.2187 37.344 20.2C37.344 20.8613 37.4933 21.4053 37.792 21.832C38.0907 22.2587 38.6133 22.6427 39.36 22.984C40.1067 23.3253 41.152 23.6773 42.496 24.04C44.3093 24.5307 45.7493 25.096 46.816 25.736C47.8827 26.376 48.6507 27.144 49.12 28.04C49.5893 28.936 49.824 30.0027 49.824 31.24C49.824 32.4773 49.4933 33.576 48.832 34.536C48.1707 35.4747 47.2427 36.2107 46.048 36.744C44.8747 37.256 43.488 37.512 41.888 37.512ZM60.7875 37.512C58.9742 37.512 57.4382 37.0533 56.1795 36.136C54.9422 35.2187 53.9928 33.8747 53.3315 32.104C52.6702 30.3333 52.3395 28.1893 52.3395 25.672C52.3395 23.112 52.6702 20.9467 53.3315 19.176C53.9928 17.4053 54.9422 16.0613 56.1795 15.144C57.4382 14.2267 58.9742 13.768 60.7875 13.768C62.6008 13.768 64.1368 14.2267 65.3955 15.144C66.6542 16.0613 67.6035 17.4053 68.2435 19.176C68.9048 20.9467 69.2355 23.112 69.2355 25.672C69.2355 28.1893 68.9048 30.3333 68.2435 32.104C67.6035 33.8747 66.6542 35.2187 65.3955 36.136C64.1368 37.0533 62.6008 37.512 60.7875 37.512ZM60.7875 34.376C61.8542 34.376 62.7502 34.056 63.4755 33.416C64.2222 32.776 64.7875 31.8053 65.1715 30.504C65.5555 29.2027 65.7475 27.592 65.7475 25.672C65.7475 23.752 65.5555 22.1413 65.1715 20.84C64.7875 19.5173 64.2222 18.536 63.4755 17.896C62.7502 17.2347 61.8542 16.904 60.7875 16.904C59.7208 16.904 58.8142 17.2347 58.0675 17.896C57.3422 18.536 56.7875 19.5173 56.4035 20.84C56.0195 22.1413 55.8275 23.752 55.8275 25.672C55.8275 27.592 56.0195 29.2027 56.4035 30.504C56.7875 31.8053 57.3422 32.776 58.0675 33.416C58.8142 34.056 59.7208 34.376 60.7875 34.376ZM73.511 37V14.28H76.871V35.72L74.823 33.832H87.719V37H73.511ZM90.3305 37L96.9865 14.28H101.339L107.995 37H104.507L99.1625 17.768L93.8185 37H90.3305ZM94.0425 31.08L95.0665 27.976H103.259L104.283 31.08H94.0425ZM110.894 37V14.28H117.966C120.377 14.28 122.265 14.888 123.63 16.104C125.017 17.32 125.71 18.9733 125.71 21.064C125.71 22.152 125.465 23.112 124.974 23.944C124.505 24.776 123.875 25.4267 123.086 25.896C122.318 26.3653 121.497 26.632 120.622 26.696L120.494 26.312C122.073 26.376 123.246 26.7387 124.014 27.4C124.803 28.04 125.262 29.0853 125.39 30.536L125.966 37H122.606L122.094 31.176C122.03 30.4293 121.87 29.832 121.614 29.384C121.358 28.936 120.963 28.616 120.43 28.424C119.897 28.232 119.161 28.136 118.222 28.136H114.254V37H110.894ZM114.254 25H117.902C119.31 25 120.387 24.6693 121.134 24.008C121.881 23.3467 122.254 22.4187 122.254 21.224C122.254 20.008 121.881 19.08 121.134 18.44C120.387 17.7787 119.31 17.448 117.902 17.448H114.254V25Z" fill="#545454"/>
<rect x="174" width="218" height="52" rx="11" fill="#E4FE55"/>
<path d="M208.656 37V14.28H215.248C217.744 14.28 219.643 14.824 220.944 15.912C222.245 17 222.896 18.5147 222.896 20.456C222.896 21.3947 222.683 22.2373 222.256 22.984C221.829 23.7093 221.2 24.296 220.368 24.744C219.557 25.1707 218.587 25.3947 217.456 25.416V25.224C218.843 25.224 220.005 25.4587 220.944 25.928C221.904 26.376 222.629 27.016 223.12 27.848C223.611 28.6587 223.856 29.608 223.856 30.696C223.856 32.7013 223.163 34.2587 221.776 35.368C220.411 36.456 218.491 37 216.016 37H208.656ZM212.016 33.864H216.048C217.52 33.864 218.608 33.576 219.312 33C220.016 32.4027 220.368 31.5813 220.368 30.536C220.368 29.4267 219.995 28.5627 219.248 27.944C218.523 27.3253 217.456 27.016 216.048 27.016H212.016V33.864ZM212.016 23.912H215.312C216.72 23.912 217.755 23.6347 218.416 23.08C219.077 22.504 219.408 21.704 219.408 20.68C219.408 19.6347 219.077 18.8347 218.416 18.28C217.755 17.704 216.72 17.416 215.312 17.416H212.016V23.912ZM234.788 37.512C232.356 37.512 230.457 36.7653 229.092 35.272C227.726 33.7787 227.044 31.72 227.044 29.096V14.28H230.404V29.224C230.404 30.888 230.777 32.168 231.524 33.064C232.27 33.9387 233.358 34.376 234.788 34.376C236.217 34.376 237.305 33.9387 238.052 33.064C238.798 32.168 239.172 30.888 239.172 29.224V14.28H242.532V29.096C242.532 31.72 241.849 33.7787 240.484 35.272C239.118 36.7653 237.22 37.512 234.788 37.512ZM246.871 37V33.832H252.311V17.448H246.871V14.28H261.079V17.448H255.639V33.832H261.079V37H246.871ZM266.699 37V14.28H270.059V35.72L268.011 33.832H280.907V37H266.699ZM285.406 37V14.28H290.942C292.947 14.28 294.686 14.728 296.158 15.624C297.651 16.4987 298.793 17.7893 299.582 19.496C300.393 21.1813 300.798 23.24 300.798 25.672C300.798 28.104 300.393 30.1627 299.582 31.848C298.793 33.5333 297.651 34.8133 296.158 35.688C294.686 36.5627 292.947 37 290.942 37H285.406ZM288.766 33.832H290.846C292.915 33.832 294.505 33.16 295.614 31.816C296.745 30.4507 297.31 28.4027 297.31 25.672C297.31 22.9413 296.745 20.8933 295.614 19.528C294.505 18.1413 292.915 17.448 290.846 17.448H288.766V33.832ZM304.434 37V33.832H309.874V17.448H304.434V14.28H318.642V17.448H313.202V33.832H318.642V37H304.434ZM323.301 37V14.28H327.397L334.853 32.232V14.28H338.149V37H334.053L326.597 19.048V37H323.301ZM349.881 37.512C348.238 37.512 346.787 37.064 345.529 36.168C344.27 35.272 343.278 33.9493 342.553 32.2C341.827 30.4293 341.465 28.2533 341.465 25.672C341.465 23.2187 341.806 21.1067 342.489 19.336C343.171 17.5653 344.142 16.2 345.401 15.24C346.681 14.2587 348.206 13.768 349.977 13.768C351.406 13.768 352.665 14.0773 353.753 14.696C354.841 15.3147 355.747 16.1893 356.472 17.32C357.219 18.4507 357.753 19.7733 358.073 21.288L354.585 21.512C354.265 20.1253 353.721 19.016 352.953 18.184C352.206 17.352 351.225 16.936 350.009 16.936C348.942 16.936 348.025 17.2773 347.257 17.96C346.51 18.6213 345.934 19.6027 345.529 20.904C345.145 22.2053 344.953 23.7947 344.953 25.672C344.953 27.528 345.155 29.1067 345.561 30.408C345.966 31.688 346.553 32.6693 347.321 33.352C348.11 34.0133 349.059 34.344 350.169 34.344C351.15 34.344 351.993 34.0987 352.697 33.608C353.401 33.096 353.945 32.392 354.329 31.496C354.734 30.5787 354.958 29.5227 355.001 28.328H350.009V25.416H358.105V37H355.385L355.225 31.784L356.089 31.752C355.854 32.84 355.47 33.8213 354.937 34.696C354.425 35.5707 353.753 36.264 352.921 36.776C352.089 37.2667 351.075 37.512 349.881 37.512Z" fill="#545454"/>
<rect x="406" width="199" height="52" rx="11" fill="#E4FE55"/>
<path d="M447.696 37.512C445.861 37.512 444.304 37.032 443.024 36.072C441.765 35.112 440.805 33.7467 440.144 31.976C439.483 30.2053 439.152 28.104 439.152 25.672C439.152 23.2187 439.483 21.1067 440.144 19.336C440.805 17.5653 441.765 16.2 443.024 15.24C444.304 14.2587 445.861 13.768 447.696 13.768C449.765 13.768 451.504 14.4507 452.912 15.816C454.341 17.1813 455.28 19.0907 455.728 21.544L452.208 21.736C451.888 20.1573 451.323 18.9627 450.512 18.152C449.723 17.32 448.784 16.904 447.696 16.904C446.587 16.904 445.659 17.2453 444.912 17.928C444.165 18.6107 443.6 19.6027 443.216 20.904C442.832 22.2053 442.64 23.7947 442.64 25.672C442.64 27.528 442.832 29.1067 443.216 30.408C443.6 31.688 444.165 32.6693 444.912 33.352C445.659 34.0347 446.587 34.376 447.696 34.376C448.869 34.376 449.872 33.928 450.704 33.032C451.536 32.136 452.091 30.824 452.368 29.096L455.856 29.256C455.472 31.8587 454.565 33.8853 453.136 35.336C451.707 36.7867 449.893 37.512 447.696 37.512ZM466.788 37.512C464.974 37.512 463.438 37.0533 462.18 36.136C460.942 35.2187 459.993 33.8747 459.332 32.104C458.67 30.3333 458.34 28.1893 458.34 25.672C458.34 23.112 458.67 20.9467 459.332 19.176C459.993 17.4053 460.942 16.0613 462.18 15.144C463.438 14.2267 464.974 13.768 466.788 13.768C468.601 13.768 470.137 14.2267 471.396 15.144C472.654 16.0613 473.604 17.4053 474.244 19.176C474.905 20.9467 475.236 23.112 475.236 25.672C475.236 28.1893 474.905 30.3333 474.244 32.104C473.604 33.8747 472.654 35.2187 471.396 36.136C470.137 37.0533 468.601 37.512 466.788 37.512ZM466.788 34.376C467.854 34.376 468.75 34.056 469.476 33.416C470.222 32.776 470.788 31.8053 471.172 30.504C471.556 29.2027 471.748 27.592 471.748 25.672C471.748 23.752 471.556 22.1413 471.172 20.84C470.788 19.5173 470.222 18.536 469.476 17.896C468.75 17.2347 467.854 16.904 466.788 16.904C465.721 16.904 464.814 17.2347 464.068 17.896C463.342 18.536 462.788 19.5173 462.404 20.84C462.02 22.1413 461.828 23.752 461.828 25.672C461.828 27.592 462.02 29.2027 462.404 30.504C462.788 31.8053 463.342 32.776 464.068 33.416C464.814 34.056 465.721 34.376 466.788 34.376ZM478.551 37V14.28H482.647L490.103 32.232V14.28H493.399V37H489.303L481.847 19.048V37H478.551ZM503.499 37V17.448H496.843V14.28H513.483V17.448H506.827V37H503.499ZM515.518 37L522.174 14.28H526.526L533.182 37H529.694L524.35 17.768L519.006 37H515.518ZM519.23 31.08L520.254 27.976H528.446L529.47 31.08H519.23ZM543.634 37.512C541.799 37.512 540.242 37.032 538.962 36.072C537.703 35.112 536.743 33.7467 536.082 31.976C535.42 30.2053 535.09 28.104 535.09 25.672C535.09 23.2187 535.42 21.1067 536.082 19.336C536.743 17.5653 537.703 16.2 538.962 15.24C540.242 14.2587 541.799 13.768 543.634 13.768C545.703 13.768 547.442 14.4507 548.85 15.816C550.279 17.1813 551.218 19.0907 551.666 21.544L548.146 21.736C547.826 20.1573 547.26 18.9627 546.45 18.152C545.66 17.32 544.722 16.904 543.634 16.904C542.524 16.904 541.596 17.2453 540.85 17.928C540.103 18.6107 539.538 19.6027 539.154 20.904C538.77 22.2053 538.578 23.7947 538.578 25.672C538.578 27.528 538.77 29.1067 539.154 30.408C539.538 31.688 540.103 32.6693 540.85 33.352C541.596 34.0347 542.524 34.376 543.634 34.376C544.807 34.376 545.81 33.928 546.642 33.032C547.474 32.136 548.028 30.824 548.306 29.096L551.794 29.256C551.41 31.8587 550.503 33.8853 549.074 35.336C547.644 36.7867 545.831 37.512 543.634 37.512ZM561.061 37V17.448H554.405V14.28H571.045V17.448H564.389V37H561.061Z" fill="#545454"/>
<rect x="620" y="1" width="235" height="50" rx="10" stroke="#8A8A8A" stroke-width="2" stroke-dasharray="15 15"/>
<path d="M658.936 37V27.656L652.184 14.28H655.896L660.6 24.2L665.304 14.28H669.016L662.296 27.656V37H658.936ZM679.788 37.512C677.974 37.512 676.438 37.0533 675.18 36.136C673.942 35.2187 672.993 33.8747 672.332 32.104C671.67 30.3333 671.34 28.1893 671.34 25.672C671.34 23.112 671.67 20.9467 672.332 19.176C672.993 17.4053 673.942 16.0613 675.18 15.144C676.438 14.2267 677.974 13.768 679.788 13.768C681.601 13.768 683.137 14.2267 684.396 15.144C685.654 16.0613 686.604 17.4053 687.244 19.176C687.905 20.9467 688.236 23.112 688.236 25.672C688.236 28.1893 687.905 30.3333 687.244 32.104C686.604 33.8747 685.654 35.2187 684.396 36.136C683.137 37.0533 681.601 37.512 679.788 37.512ZM679.788 34.376C680.854 34.376 681.75 34.056 682.476 33.416C683.222 32.776 683.788 31.8053 684.172 30.504C684.556 29.2027 684.748 27.592 684.748 25.672C684.748 23.752 684.556 22.1413 684.172 20.84C683.788 19.5173 683.222 18.536 682.476 17.896C681.75 17.2347 680.854 16.904 679.788 16.904C678.721 16.904 677.814 17.2347 677.068 17.896C676.342 18.536 675.788 19.5173 675.404 20.84C675.02 22.1413 674.828 23.752 674.828 25.672C674.828 27.592 675.02 29.2027 675.404 30.504C675.788 31.8053 676.342 32.776 677.068 33.416C677.814 34.056 678.721 34.376 679.788 34.376ZM698.975 37.512C696.543 37.512 694.644 36.7653 693.279 35.272C691.914 33.7787 691.231 31.72 691.231 29.096V14.28H694.591V29.224C694.591 30.888 694.964 32.168 695.711 33.064C696.458 33.9387 697.546 34.376 698.975 34.376C700.404 34.376 701.492 33.9387 702.239 33.064C702.986 32.168 703.359 30.888 703.359 29.224V14.28H706.719V29.096C706.719 31.72 706.036 33.7787 704.671 35.272C703.306 36.7653 701.407 37.512 698.975 37.512ZM710.707 37V14.28H717.779C720.189 14.28 722.077 14.888 723.443 16.104C724.829 17.32 725.523 18.9733 725.523 21.064C725.523 22.152 725.277 23.112 724.787 23.944C724.317 24.776 723.688 25.4267 722.899 25.896C722.131 26.3653 721.309 26.632 720.435 26.696L720.307 26.312C721.885 26.376 723.059 26.7387 723.827 27.4C724.616 28.04 725.075 29.0853 725.203 30.536L725.779 37H722.419L721.907 31.176C721.843 30.4293 721.683 29.832 721.427 29.384C721.171 28.936 720.776 28.616 720.243 28.424C719.709 28.232 718.973 28.136 718.035 28.136H714.067V37H710.707ZM714.067 25H717.715C719.123 25 720.2 24.6693 720.947 24.008C721.693 23.3467 722.067 22.4187 722.067 21.224C722.067 20.008 721.693 19.08 720.947 18.44C720.2 17.7787 719.123 17.448 717.715 17.448H714.067V25ZM749.594 37V14.28H755.13C757.135 14.28 758.874 14.728 760.346 15.624C761.839 16.4987 762.98 17.7893 763.77 19.496C764.58 21.1813 764.986 23.24 764.986 25.672C764.986 28.104 764.58 30.1627 763.77 31.848C762.98 33.5333 761.839 34.8133 760.346 35.688C758.874 36.5627 757.135 37 755.13 37H749.594ZM752.954 33.832H755.034C757.103 33.832 758.692 33.16 759.802 31.816C760.932 30.4507 761.498 28.4027 761.498 25.672C761.498 22.9413 760.932 20.8933 759.802 19.528C758.692 18.1413 757.103 17.448 755.034 17.448H752.954V33.832ZM766.893 37L773.549 14.28H777.901L784.557 37H781.069L775.725 17.768L770.381 37H766.893ZM770.605 31.08L771.629 27.976H779.821L780.845 31.08H770.605ZM793.249 37V17.448H786.593V14.28H803.233V17.448H796.577V37H793.249ZM805.268 37L811.924 14.28H816.276L822.932 37H819.444L814.1 17.768L808.756 37H805.268ZM808.98 31.08L810.004 27.976H818.196L819.22 31.08H808.98Z" fill="#545454"/>
<path d="M737.5 58V88.5C737.5 101.755 726.755 112.5 713.5 112.5H451.5C438.245 112.5 427.5 123.245 427.5 136.5V167" stroke="#B3B3B3" stroke-width="4" stroke-linecap="round" stroke-linejoin="bevel"/>
<path d="M505.5 58V88.5C505.5 101.755 494.755 112.5 481.5 112.5H451.5C438.245 112.5 427.5 123.245 427.5 136.5V167" stroke="#B3B3B3" stroke-width="4" stroke-linecap="round" stroke-linejoin="bevel"/>
<path d="M283 58V88.5C283 101.755 293.745 112.5 307 112.5H403.5C416.755 112.5 427.5 123.245 427.5 136.5V167" stroke="#B3B3B3" stroke-width="4" stroke-linecap="round" stroke-linejoin="bevel"/>
<path d="M80 58V88.5C80 101.755 90.7452 112.5 104 112.5H403.5C416.755 112.5 427.5 123.245 427.5 136.5V167" stroke="#B3B3B3" stroke-width="4" stroke-linecap="round" stroke-linejoin="bevel"/>
</svg>
